<mxfile host="www.draw.io" modified="2019-12-01T06:45:32.027Z" agent="Mozilla/5.0 (Windows NT 10.0; Win64; x64) AppleWebKit/537.36 (KHTML, like Gecko) Chrome/78.0.3904.108 Safari/537.36" etag="xsTxuJ9TDCJg9jE811Q3" version="12.3.3" type="github" pages="1">
  <diagram id="955dtmkSEFHC7xKCKR0M" name="Page-1">
    <mxGraphModel dx="2960" dy="802" grid="1" gridSize="10" guides="1" tooltips="1" connect="1" arrows="1" fold="1" page="1" pageScale="1" pageWidth="1600" pageHeight="1200" math="0" shadow="0">
      <root>
        <mxCell id="0"/>
        <mxCell id="1" parent="0"/>
        <mxCell id="p7YuXT820IIypCPLzjCK-10" value="" style="rounded=1;whiteSpace=wrap;html=1;" vertex="1" parent="1">
          <mxGeometry y="360" width="736" height="580" as="geometry"/>
        </mxCell>
        <mxCell id="sPg_e6eeyRZ8Q096PSEF-73" style="edgeStyle=orthogonalEdgeStyle;rounded=0;orthogonalLoop=1;jettySize=auto;html=1;entryX=0;entryY=0.5;entryDx=0;entryDy=0;" parent="1" source="sPg_e6eeyRZ8Q096PSEF-74" target="sPg_e6eeyRZ8Q096PSEF-76" edge="1">
          <mxGeometry relative="1" as="geometry">
            <mxPoint x="94" y="240" as="targetPoint"/>
          </mxGeometry>
        </mxCell>
        <mxCell id="sPg_e6eeyRZ8Q096PSEF-74" value="" style="ellipse;html=1;shape=startState;fillColor=#000000;strokeColor=#ff0000;" parent="1" vertex="1">
          <mxGeometry x="14" y="225" width="30" height="30" as="geometry"/>
        </mxCell>
        <mxCell id="sPg_e6eeyRZ8Q096PSEF-75" style="edgeStyle=orthogonalEdgeStyle;rounded=0;orthogonalLoop=1;jettySize=auto;html=1;entryX=0;entryY=0.5;entryDx=0;entryDy=0;" parent="1" source="sPg_e6eeyRZ8Q096PSEF-76" target="sPg_e6eeyRZ8Q096PSEF-78" edge="1">
          <mxGeometry relative="1" as="geometry"/>
        </mxCell>
        <mxCell id="sPg_e6eeyRZ8Q096PSEF-76" value="MainScreen" style="rounded=1;whiteSpace=wrap;html=1;" parent="1" vertex="1">
          <mxGeometry x="99" y="210" width="100" height="60" as="geometry"/>
        </mxCell>
        <mxCell id="sPg_e6eeyRZ8Q096PSEF-77" value="" style="edgeStyle=orthogonalEdgeStyle;rounded=0;orthogonalLoop=1;jettySize=auto;html=1;entryX=0;entryY=0.5;entryDx=0;entryDy=0;" parent="1" source="sPg_e6eeyRZ8Q096PSEF-78" target="sPg_e6eeyRZ8Q096PSEF-81" edge="1">
          <mxGeometry relative="1" as="geometry">
            <mxPoint x="414" y="240" as="targetPoint"/>
          </mxGeometry>
        </mxCell>
        <mxCell id="sPg_e6eeyRZ8Q096PSEF-78" value="Routing" style="rounded=1;whiteSpace=wrap;html=1;strokeWidth=2;" parent="1" vertex="1">
          <mxGeometry x="294" y="210" width="100" height="60" as="geometry"/>
        </mxCell>
        <mxCell id="sPg_e6eeyRZ8Q096PSEF-80" style="edgeStyle=orthogonalEdgeStyle;rounded=0;orthogonalLoop=1;jettySize=auto;html=1;entryX=0;entryY=0.5;entryDx=0;entryDy=0;" parent="1" source="sPg_e6eeyRZ8Q096PSEF-81" target="sPg_e6eeyRZ8Q096PSEF-83" edge="1">
          <mxGeometry relative="1" as="geometry"/>
        </mxCell>
        <mxCell id="p7YuXT820IIypCPLzjCK-67" style="edgeStyle=orthogonalEdgeStyle;rounded=0;orthogonalLoop=1;jettySize=auto;html=1;entryX=0.5;entryY=1;entryDx=0;entryDy=0;" edge="1" parent="1" source="sPg_e6eeyRZ8Q096PSEF-81" target="sPg_e6eeyRZ8Q096PSEF-76">
          <mxGeometry relative="1" as="geometry">
            <Array as="points">
              <mxPoint x="539" y="310"/>
              <mxPoint x="149" y="310"/>
            </Array>
          </mxGeometry>
        </mxCell>
        <mxCell id="sPg_e6eeyRZ8Q096PSEF-81" value="Navigate" style="rounded=1;whiteSpace=wrap;html=1;" parent="1" vertex="1">
          <mxGeometry x="489" y="210" width="100" height="60" as="geometry"/>
        </mxCell>
        <mxCell id="sPg_e6eeyRZ8Q096PSEF-82" value="" style="endArrow=classic;html=1;" parent="1" edge="1">
          <mxGeometry width="50" height="50" relative="1" as="geometry">
            <mxPoint x="-110.5" y="650" as="sourcePoint"/>
            <mxPoint x="-0.5" y="650" as="targetPoint"/>
          </mxGeometry>
        </mxCell>
        <mxCell id="sPg_e6eeyRZ8Q096PSEF-83" value="" style="ellipse;html=1;shape=endState;fillColor=#000000;strokeColor=#ff0000;" parent="1" vertex="1">
          <mxGeometry x="639" y="225" width="30" height="30" as="geometry"/>
        </mxCell>
        <mxCell id="sPg_e6eeyRZ8Q096PSEF-101" value="Access" style="text;html=1;strokeColor=none;fillColor=none;align=center;verticalAlign=middle;whiteSpace=wrap;rounded=0;" parent="1" vertex="1">
          <mxGeometry x="44" y="215" width="40" height="20" as="geometry"/>
        </mxCell>
        <mxCell id="sPg_e6eeyRZ8Q096PSEF-102" value="RequestRoute" style="text;html=1;strokeColor=none;fillColor=none;align=center;verticalAlign=middle;whiteSpace=wrap;rounded=0;" parent="1" vertex="1">
          <mxGeometry x="226.5" y="215" width="40" height="20" as="geometry"/>
        </mxCell>
        <mxCell id="sPg_e6eeyRZ8Q096PSEF-104" value="RequestNavigate" style="text;html=1;strokeColor=none;fillColor=none;align=center;verticalAlign=middle;whiteSpace=wrap;rounded=0;" parent="1" vertex="1">
          <mxGeometry x="421.5" y="215" width="40" height="20" as="geometry"/>
        </mxCell>
        <mxCell id="sPg_e6eeyRZ8Q096PSEF-106" value="Cancel" style="text;html=1;strokeColor=none;fillColor=none;align=center;verticalAlign=middle;whiteSpace=wrap;rounded=0;" parent="1" vertex="1">
          <mxGeometry x="421.5" y="150" width="40" height="20" as="geometry"/>
        </mxCell>
        <mxCell id="sPg_e6eeyRZ8Q096PSEF-107" value="" style="endArrow=none;html=1;exitX=0.5;exitY=0;exitDx=0;exitDy=0;" parent="1" source="sPg_e6eeyRZ8Q096PSEF-76" edge="1">
          <mxGeometry width="50" height="50" relative="1" as="geometry">
            <mxPoint x="124.00000000000011" y="150" as="sourcePoint"/>
            <mxPoint x="149" y="120" as="targetPoint"/>
          </mxGeometry>
        </mxCell>
        <mxCell id="sPg_e6eeyRZ8Q096PSEF-108" value="" style="endArrow=none;html=1;exitX=0.5;exitY=0;exitDx=0;exitDy=0;" parent="1" source="sPg_e6eeyRZ8Q096PSEF-78" edge="1">
          <mxGeometry width="50" height="50" relative="1" as="geometry">
            <mxPoint x="334" y="195" as="sourcePoint"/>
            <mxPoint x="344" y="120" as="targetPoint"/>
          </mxGeometry>
        </mxCell>
        <mxCell id="sPg_e6eeyRZ8Q096PSEF-109" value="" style="endArrow=none;html=1;" parent="1" edge="1">
          <mxGeometry width="50" height="50" relative="1" as="geometry">
            <mxPoint x="149" y="120" as="sourcePoint"/>
            <mxPoint x="654" y="120" as="targetPoint"/>
          </mxGeometry>
        </mxCell>
        <mxCell id="sPg_e6eeyRZ8Q096PSEF-110" value="" style="endArrow=none;html=1;" parent="1" edge="1">
          <mxGeometry width="50" height="50" relative="1" as="geometry">
            <mxPoint x="539" y="210" as="sourcePoint"/>
            <mxPoint x="539" y="120" as="targetPoint"/>
          </mxGeometry>
        </mxCell>
        <mxCell id="sPg_e6eeyRZ8Q096PSEF-111" value="" style="endArrow=classic;html=1;" parent="1" edge="1">
          <mxGeometry width="50" height="50" relative="1" as="geometry">
            <mxPoint x="654" y="120" as="sourcePoint"/>
            <mxPoint x="654" y="222" as="targetPoint"/>
          </mxGeometry>
        </mxCell>
        <mxCell id="sPg_e6eeyRZ8Q096PSEF-112" value="EndProgram" style="text;html=1;strokeColor=none;fillColor=none;align=center;verticalAlign=middle;whiteSpace=wrap;rounded=0;" parent="1" vertex="1">
          <mxGeometry x="381.5" y="100" width="40" height="20" as="geometry"/>
        </mxCell>
        <mxCell id="sPg_e6eeyRZ8Q096PSEF-121" value="RequestRoute" style="text;html=1;strokeColor=none;fillColor=none;align=center;verticalAlign=middle;whiteSpace=wrap;rounded=0;fontSize=15;" parent="1" vertex="1">
          <mxGeometry x="-80" y="620" width="40" height="20" as="geometry"/>
        </mxCell>
        <mxCell id="sPg_e6eeyRZ8Q096PSEF-122" value="Start" style="text;html=1;strokeColor=none;fillColor=none;align=center;verticalAlign=middle;whiteSpace=wrap;rounded=0;fontSize=15;" parent="1" vertex="1">
          <mxGeometry x="9" y="270" width="40" height="20" as="geometry"/>
        </mxCell>
        <mxCell id="sPg_e6eeyRZ8Q096PSEF-123" value="End" style="text;html=1;strokeColor=none;fillColor=none;align=center;verticalAlign=middle;whiteSpace=wrap;rounded=0;fontSize=15;" parent="1" vertex="1">
          <mxGeometry x="634" y="270" width="40" height="20" as="geometry"/>
        </mxCell>
        <mxCell id="sPg_e6eeyRZ8Q096PSEF-124" value="" style="rounded=0;whiteSpace=wrap;html=1;strokeWidth=1;fontSize=15;" parent="1" vertex="1">
          <mxGeometry x="321.5" y="360" width="80" height="30" as="geometry"/>
        </mxCell>
        <mxCell id="sPg_e6eeyRZ8Q096PSEF-125" value="Routing" style="text;html=1;strokeColor=none;fillColor=none;align=center;verticalAlign=middle;whiteSpace=wrap;rounded=0;fontSize=21;" parent="1" vertex="1">
          <mxGeometry x="341.5" y="365" width="40" height="20" as="geometry"/>
        </mxCell>
        <mxCell id="sPg_e6eeyRZ8Q096PSEF-137" value="" style="endArrow=classic;html=1;entryX=0.75;entryY=0;entryDx=0;entryDy=0;" parent="1" target="sPg_e6eeyRZ8Q096PSEF-76" edge="1">
          <mxGeometry width="50" height="50" relative="1" as="geometry">
            <mxPoint x="314" y="210" as="sourcePoint"/>
            <mxPoint x="364" y="160" as="targetPoint"/>
            <Array as="points">
              <mxPoint x="244" y="170"/>
            </Array>
          </mxGeometry>
        </mxCell>
        <mxCell id="sPg_e6eeyRZ8Q096PSEF-138" value="" style="endArrow=classic;html=1;entryX=0.75;entryY=0;entryDx=0;entryDy=0;exitX=0.15;exitY=0;exitDx=0;exitDy=0;exitPerimeter=0;" parent="1" source="sPg_e6eeyRZ8Q096PSEF-81" target="sPg_e6eeyRZ8Q096PSEF-78" edge="1">
          <mxGeometry width="50" height="50" relative="1" as="geometry">
            <mxPoint x="517.5" y="210" as="sourcePoint"/>
            <mxPoint x="567.5" y="160" as="targetPoint"/>
            <Array as="points">
              <mxPoint x="444" y="170"/>
            </Array>
          </mxGeometry>
        </mxCell>
        <mxCell id="sPg_e6eeyRZ8Q096PSEF-139" value="Cancel" style="text;html=1;strokeColor=none;fillColor=none;align=center;verticalAlign=middle;whiteSpace=wrap;rounded=0;" parent="1" vertex="1">
          <mxGeometry x="226.5" y="150" width="40" height="20" as="geometry"/>
        </mxCell>
        <mxCell id="p7YuXT820IIypCPLzjCK-23" value="" style="endArrow=classic;html=1;entryX=0;entryY=0.5;entryDx=0;entryDy=0;" edge="1" parent="1" target="p7YuXT820IIypCPLzjCK-24">
          <mxGeometry width="50" height="50" relative="1" as="geometry">
            <mxPoint y="659" as="sourcePoint"/>
            <mxPoint x="50" y="614" as="targetPoint"/>
            <Array as="points">
              <mxPoint y="518"/>
            </Array>
          </mxGeometry>
        </mxCell>
        <mxCell id="p7YuXT820IIypCPLzjCK-40" value="" style="edgeStyle=orthogonalEdgeStyle;rounded=0;orthogonalLoop=1;jettySize=auto;html=1;" edge="1" parent="1" source="p7YuXT820IIypCPLzjCK-24" target="p7YuXT820IIypCPLzjCK-33">
          <mxGeometry relative="1" as="geometry"/>
        </mxCell>
        <mxCell id="p7YuXT820IIypCPLzjCK-43" style="edgeStyle=orthogonalEdgeStyle;rounded=0;orthogonalLoop=1;jettySize=auto;html=1;entryX=0.5;entryY=0;entryDx=0;entryDy=0;" edge="1" parent="1" source="p7YuXT820IIypCPLzjCK-24" target="p7YuXT820IIypCPLzjCK-32">
          <mxGeometry relative="1" as="geometry"/>
        </mxCell>
        <mxCell id="p7YuXT820IIypCPLzjCK-53" value="" style="edgeStyle=orthogonalEdgeStyle;rounded=0;orthogonalLoop=1;jettySize=auto;html=1;" edge="1" parent="1" source="p7YuXT820IIypCPLzjCK-24" target="p7YuXT820IIypCPLzjCK-52">
          <mxGeometry relative="1" as="geometry"/>
        </mxCell>
        <mxCell id="p7YuXT820IIypCPLzjCK-24" value="Search with text" style="rounded=1;whiteSpace=wrap;html=1;" vertex="1" parent="1">
          <mxGeometry x="66" y="487.5" width="97" height="60" as="geometry"/>
        </mxCell>
        <mxCell id="p7YuXT820IIypCPLzjCK-63" value="" style="edgeStyle=orthogonalEdgeStyle;rounded=0;orthogonalLoop=1;jettySize=auto;html=1;" edge="1" parent="1" source="p7YuXT820IIypCPLzjCK-52" target="p7YuXT820IIypCPLzjCK-62">
          <mxGeometry relative="1" as="geometry"/>
        </mxCell>
        <mxCell id="p7YuXT820IIypCPLzjCK-52" value="Show place candidates" style="rounded=1;whiteSpace=wrap;html=1;" vertex="1" parent="1">
          <mxGeometry x="218" y="487.5" width="97" height="60" as="geometry"/>
        </mxCell>
        <mxCell id="p7YuXT820IIypCPLzjCK-70" value="" style="edgeStyle=orthogonalEdgeStyle;rounded=0;orthogonalLoop=1;jettySize=auto;html=1;" edge="1" parent="1" source="p7YuXT820IIypCPLzjCK-62" target="p7YuXT820IIypCPLzjCK-69">
          <mxGeometry relative="1" as="geometry"/>
        </mxCell>
        <mxCell id="p7YuXT820IIypCPLzjCK-62" value="Show terminal lists" style="rounded=1;whiteSpace=wrap;html=1;" vertex="1" parent="1">
          <mxGeometry x="381.5" y="487.5" width="97" height="60" as="geometry"/>
        </mxCell>
        <mxCell id="p7YuXT820IIypCPLzjCK-78" style="edgeStyle=orthogonalEdgeStyle;rounded=0;orthogonalLoop=1;jettySize=auto;html=1;" edge="1" parent="1" source="p7YuXT820IIypCPLzjCK-69">
          <mxGeometry relative="1" as="geometry">
            <mxPoint x="736" y="650" as="targetPoint"/>
          </mxGeometry>
        </mxCell>
        <mxCell id="p7YuXT820IIypCPLzjCK-69" value="Finalize terminal" style="rounded=1;whiteSpace=wrap;html=1;" vertex="1" parent="1">
          <mxGeometry x="545" y="487.5" width="97" height="60" as="geometry"/>
        </mxCell>
        <mxCell id="p7YuXT820IIypCPLzjCK-50" style="edgeStyle=orthogonalEdgeStyle;rounded=0;orthogonalLoop=1;jettySize=auto;html=1;entryX=0.5;entryY=0;entryDx=0;entryDy=0;" edge="1" parent="1" source="p7YuXT820IIypCPLzjCK-26" target="p7YuXT820IIypCPLzjCK-36">
          <mxGeometry relative="1" as="geometry"/>
        </mxCell>
        <mxCell id="p7YuXT820IIypCPLzjCK-51" style="edgeStyle=orthogonalEdgeStyle;rounded=0;orthogonalLoop=1;jettySize=auto;html=1;entryX=0.5;entryY=1;entryDx=0;entryDy=0;" edge="1" parent="1" source="p7YuXT820IIypCPLzjCK-26" target="p7YuXT820IIypCPLzjCK-31">
          <mxGeometry relative="1" as="geometry"/>
        </mxCell>
        <mxCell id="p7YuXT820IIypCPLzjCK-57" value="" style="edgeStyle=orthogonalEdgeStyle;rounded=0;orthogonalLoop=1;jettySize=auto;html=1;" edge="1" parent="1" source="p7YuXT820IIypCPLzjCK-26" target="p7YuXT820IIypCPLzjCK-56">
          <mxGeometry relative="1" as="geometry"/>
        </mxCell>
        <mxCell id="p7YuXT820IIypCPLzjCK-26" value="&lt;span style=&quot;white-space: normal&quot;&gt;Search with text&lt;/span&gt;" style="rounded=1;whiteSpace=wrap;html=1;" vertex="1" parent="1">
          <mxGeometry x="66" y="750" width="97" height="60" as="geometry"/>
        </mxCell>
        <mxCell id="p7YuXT820IIypCPLzjCK-61" value="" style="edgeStyle=orthogonalEdgeStyle;rounded=0;orthogonalLoop=1;jettySize=auto;html=1;" edge="1" parent="1" source="p7YuXT820IIypCPLzjCK-56" target="p7YuXT820IIypCPLzjCK-60">
          <mxGeometry relative="1" as="geometry"/>
        </mxCell>
        <mxCell id="p7YuXT820IIypCPLzjCK-56" value="&lt;span style=&quot;white-space: normal&quot;&gt;Show place candidates&lt;/span&gt;" style="rounded=1;whiteSpace=wrap;html=1;" vertex="1" parent="1">
          <mxGeometry x="218" y="750" width="97" height="60" as="geometry"/>
        </mxCell>
        <mxCell id="p7YuXT820IIypCPLzjCK-72" value="" style="edgeStyle=orthogonalEdgeStyle;rounded=0;orthogonalLoop=1;jettySize=auto;html=1;" edge="1" parent="1" source="p7YuXT820IIypCPLzjCK-60" target="p7YuXT820IIypCPLzjCK-71">
          <mxGeometry relative="1" as="geometry"/>
        </mxCell>
        <mxCell id="p7YuXT820IIypCPLzjCK-60" value="Show terminal lists" style="rounded=1;whiteSpace=wrap;html=1;" vertex="1" parent="1">
          <mxGeometry x="381.5" y="750" width="97" height="60" as="geometry"/>
        </mxCell>
        <mxCell id="p7YuXT820IIypCPLzjCK-77" style="edgeStyle=orthogonalEdgeStyle;rounded=0;orthogonalLoop=1;jettySize=auto;html=1;entryX=1;entryY=0.5;entryDx=0;entryDy=0;exitX=1;exitY=0.5;exitDx=0;exitDy=0;" edge="1" parent="1" source="p7YuXT820IIypCPLzjCK-71" target="p7YuXT820IIypCPLzjCK-10">
          <mxGeometry relative="1" as="geometry">
            <Array as="points">
              <mxPoint x="736" y="780"/>
            </Array>
          </mxGeometry>
        </mxCell>
        <mxCell id="p7YuXT820IIypCPLzjCK-71" value="Finalize terminal" style="rounded=1;whiteSpace=wrap;html=1;" vertex="1" parent="1">
          <mxGeometry x="545" y="750" width="97" height="60" as="geometry"/>
        </mxCell>
        <mxCell id="p7YuXT820IIypCPLzjCK-27" value="" style="endArrow=classic;html=1;entryX=0;entryY=0.5;entryDx=0;entryDy=0;" edge="1" parent="1" target="p7YuXT820IIypCPLzjCK-26">
          <mxGeometry width="50" height="50" relative="1" as="geometry">
            <mxPoint y="669" as="sourcePoint"/>
            <mxPoint x="50" y="619" as="targetPoint"/>
            <Array as="points">
              <mxPoint y="780"/>
            </Array>
          </mxGeometry>
        </mxCell>
        <mxCell id="p7YuXT820IIypCPLzjCK-28" value="Select departure" style="text;html=1;strokeColor=none;fillColor=none;align=center;verticalAlign=middle;whiteSpace=wrap;rounded=0;" vertex="1" parent="1">
          <mxGeometry x="12" y="487.5" width="40" height="20" as="geometry"/>
        </mxCell>
        <mxCell id="p7YuXT820IIypCPLzjCK-29" value="Select destination" style="text;html=1;strokeColor=none;fillColor=none;align=center;verticalAlign=middle;whiteSpace=wrap;rounded=0;" vertex="1" parent="1">
          <mxGeometry x="12" y="750" width="40" height="20" as="geometry"/>
        </mxCell>
        <mxCell id="p7YuXT820IIypCPLzjCK-48" value="" style="edgeStyle=orthogonalEdgeStyle;rounded=0;orthogonalLoop=1;jettySize=auto;html=1;" edge="1" parent="1" source="p7YuXT820IIypCPLzjCK-31" target="p7YuXT820IIypCPLzjCK-26">
          <mxGeometry relative="1" as="geometry"/>
        </mxCell>
        <mxCell id="p7YuXT820IIypCPLzjCK-75" style="edgeStyle=orthogonalEdgeStyle;rounded=0;orthogonalLoop=1;jettySize=auto;html=1;entryX=0.5;entryY=0;entryDx=0;entryDy=0;" edge="1" parent="1" source="p7YuXT820IIypCPLzjCK-31" target="p7YuXT820IIypCPLzjCK-71">
          <mxGeometry relative="1" as="geometry"/>
        </mxCell>
        <mxCell id="p7YuXT820IIypCPLzjCK-31" value="&lt;span style=&quot;white-space: normal&quot;&gt;Search with recent record&lt;/span&gt;" style="rounded=1;whiteSpace=wrap;html=1;" vertex="1" parent="1">
          <mxGeometry x="66" y="665" width="97" height="60" as="geometry"/>
        </mxCell>
        <mxCell id="p7YuXT820IIypCPLzjCK-44" style="edgeStyle=orthogonalEdgeStyle;rounded=0;orthogonalLoop=1;jettySize=auto;html=1;entryX=0.5;entryY=1;entryDx=0;entryDy=0;" edge="1" parent="1" source="p7YuXT820IIypCPLzjCK-32" target="p7YuXT820IIypCPLzjCK-24">
          <mxGeometry relative="1" as="geometry"/>
        </mxCell>
        <mxCell id="p7YuXT820IIypCPLzjCK-74" style="edgeStyle=orthogonalEdgeStyle;rounded=0;orthogonalLoop=1;jettySize=auto;html=1;entryX=0.5;entryY=1;entryDx=0;entryDy=0;" edge="1" parent="1" source="p7YuXT820IIypCPLzjCK-32" target="p7YuXT820IIypCPLzjCK-69">
          <mxGeometry relative="1" as="geometry"/>
        </mxCell>
        <mxCell id="p7YuXT820IIypCPLzjCK-32" value="&lt;span style=&quot;white-space: normal&quot;&gt;Search with bookmark&lt;/span&gt;" style="rounded=1;whiteSpace=wrap;html=1;" vertex="1" parent="1">
          <mxGeometry x="66" y="570" width="97" height="60" as="geometry"/>
        </mxCell>
        <mxCell id="p7YuXT820IIypCPLzjCK-39" value="" style="edgeStyle=orthogonalEdgeStyle;rounded=0;orthogonalLoop=1;jettySize=auto;html=1;" edge="1" parent="1" source="p7YuXT820IIypCPLzjCK-33" target="p7YuXT820IIypCPLzjCK-24">
          <mxGeometry relative="1" as="geometry"/>
        </mxCell>
        <mxCell id="p7YuXT820IIypCPLzjCK-73" style="edgeStyle=orthogonalEdgeStyle;rounded=0;orthogonalLoop=1;jettySize=auto;html=1;entryX=0.5;entryY=0;entryDx=0;entryDy=0;" edge="1" parent="1" source="p7YuXT820IIypCPLzjCK-33" target="p7YuXT820IIypCPLzjCK-69">
          <mxGeometry relative="1" as="geometry"/>
        </mxCell>
        <mxCell id="p7YuXT820IIypCPLzjCK-33" value="&lt;span style=&quot;white-space: normal&quot;&gt;Search with recent record&lt;/span&gt;" style="rounded=1;whiteSpace=wrap;html=1;" vertex="1" parent="1">
          <mxGeometry x="66" y="405" width="97" height="60" as="geometry"/>
        </mxCell>
        <mxCell id="p7YuXT820IIypCPLzjCK-49" value="" style="edgeStyle=orthogonalEdgeStyle;rounded=0;orthogonalLoop=1;jettySize=auto;html=1;" edge="1" parent="1" source="p7YuXT820IIypCPLzjCK-36" target="p7YuXT820IIypCPLzjCK-26">
          <mxGeometry relative="1" as="geometry"/>
        </mxCell>
        <mxCell id="p7YuXT820IIypCPLzjCK-76" style="edgeStyle=orthogonalEdgeStyle;rounded=0;orthogonalLoop=1;jettySize=auto;html=1;entryX=0.5;entryY=1;entryDx=0;entryDy=0;" edge="1" parent="1" source="p7YuXT820IIypCPLzjCK-36" target="p7YuXT820IIypCPLzjCK-71">
          <mxGeometry relative="1" as="geometry"/>
        </mxCell>
        <mxCell id="p7YuXT820IIypCPLzjCK-36" value="&lt;span style=&quot;white-space: normal&quot;&gt;Search with bookmark&lt;/span&gt;" style="rounded=1;whiteSpace=wrap;html=1;" vertex="1" parent="1">
          <mxGeometry x="66" y="835" width="97" height="60" as="geometry"/>
        </mxCell>
        <mxCell id="p7YuXT820IIypCPLzjCK-66" value="" style="endArrow=none;dashed=1;html=1;entryX=1.003;entryY=0.482;entryDx=0;entryDy=0;entryPerimeter=0;" edge="1" parent="1">
          <mxGeometry width="50" height="50" relative="1" as="geometry">
            <mxPoint y="649" as="sourcePoint"/>
            <mxPoint x="738.2080000000001" y="649.56" as="targetPoint"/>
          </mxGeometry>
        </mxCell>
        <mxCell id="p7YuXT820IIypCPLzjCK-68" value="Return main" style="text;html=1;strokeColor=none;fillColor=none;align=center;verticalAlign=middle;whiteSpace=wrap;rounded=0;" vertex="1" parent="1">
          <mxGeometry x="330" y="290" width="80" height="20" as="geometry"/>
        </mxCell>
        <mxCell id="p7YuXT820IIypCPLzjCK-81" value="" style="endArrow=classic;html=1;" edge="1" parent="1">
          <mxGeometry width="50" height="50" relative="1" as="geometry">
            <mxPoint x="736" y="649.5" as="sourcePoint"/>
            <mxPoint x="880" y="650" as="targetPoint"/>
          </mxGeometry>
        </mxCell>
        <mxCell id="p7YuXT820IIypCPLzjCK-84" value="RequestNavigate" style="text;html=1;strokeColor=none;fillColor=none;align=center;verticalAlign=middle;whiteSpace=wrap;rounded=0;fontSize=15;" vertex="1" parent="1">
          <mxGeometry x="736" y="620" width="130" height="20" as="geometry"/>
        </mxCell>
        <mxCell id="p7YuXT820IIypCPLzjCK-85" value="Direct selection" style="text;html=1;strokeColor=none;fillColor=none;align=center;verticalAlign=middle;whiteSpace=wrap;rounded=0;" vertex="1" parent="1">
          <mxGeometry x="390" y="570" width="40" height="20" as="geometry"/>
        </mxCell>
        <mxCell id="p7YuXT820IIypCPLzjCK-86" value="Direct selection" style="text;html=1;strokeColor=none;fillColor=none;align=center;verticalAlign=middle;whiteSpace=wrap;rounded=0;" vertex="1" parent="1">
          <mxGeometry x="390" y="405" width="40" height="20" as="geometry"/>
        </mxCell>
        <mxCell id="p7YuXT820IIypCPLzjCK-87" value="Direct selection" style="text;html=1;strokeColor=none;fillColor=none;align=center;verticalAlign=middle;whiteSpace=wrap;rounded=0;" vertex="1" parent="1">
          <mxGeometry x="390" y="665" width="40" height="20" as="geometry"/>
        </mxCell>
        <mxCell id="p7YuXT820IIypCPLzjCK-88" value="Direct selection" style="text;html=1;strokeColor=none;fillColor=none;align=center;verticalAlign=middle;whiteSpace=wrap;rounded=0;" vertex="1" parent="1">
          <mxGeometry x="394" y="835" width="40" height="20" as="geometry"/>
        </mxCell>
        <mxCell id="p7YuXT820IIypCPLzjCK-90" value="Return place" style="text;html=1;strokeColor=none;fillColor=none;align=center;verticalAlign=middle;whiteSpace=wrap;rounded=0;" vertex="1" parent="1">
          <mxGeometry x="170.5" y="487.5" width="40" height="20" as="geometry"/>
        </mxCell>
        <mxCell id="p7YuXT820IIypCPLzjCK-91" value="Select one place" style="text;html=1;strokeColor=none;fillColor=none;align=center;verticalAlign=middle;whiteSpace=wrap;rounded=0;" vertex="1" parent="1">
          <mxGeometry x="328.5" y="487.5" width="40" height="20" as="geometry"/>
        </mxCell>
        <mxCell id="p7YuXT820IIypCPLzjCK-92" value="Select one terminal" style="text;html=1;strokeColor=none;fillColor=none;align=center;verticalAlign=middle;whiteSpace=wrap;rounded=0;" vertex="1" parent="1">
          <mxGeometry x="499" y="487.5" width="40" height="20" as="geometry"/>
        </mxCell>
        <mxCell id="p7YuXT820IIypCPLzjCK-93" value="Select one terminal" style="text;html=1;strokeColor=none;fillColor=none;align=center;verticalAlign=middle;whiteSpace=wrap;rounded=0;" vertex="1" parent="1">
          <mxGeometry x="492" y="750" width="40" height="20" as="geometry"/>
        </mxCell>
        <mxCell id="p7YuXT820IIypCPLzjCK-94" value="Select one place" style="text;html=1;strokeColor=none;fillColor=none;align=center;verticalAlign=middle;whiteSpace=wrap;rounded=0;" vertex="1" parent="1">
          <mxGeometry x="328.5" y="750" width="40" height="20" as="geometry"/>
        </mxCell>
        <mxCell id="p7YuXT820IIypCPLzjCK-95" value="Return place" style="text;html=1;strokeColor=none;fillColor=none;align=center;verticalAlign=middle;whiteSpace=wrap;rounded=0;" vertex="1" parent="1">
          <mxGeometry x="170.5" y="750" width="40" height="20" as="geometry"/>
        </mxCell>
        <mxCell id="p7YuXT820IIypCPLzjCK-101" value="set as departure" style="text;html=1;strokeColor=none;fillColor=none;align=center;verticalAlign=middle;whiteSpace=wrap;rounded=0;" vertex="1" parent="1">
          <mxGeometry x="669" y="487.5" width="40" height="20" as="geometry"/>
        </mxCell>
        <mxCell id="p7YuXT820IIypCPLzjCK-102" value="set as destination" style="text;html=1;strokeColor=none;fillColor=none;align=center;verticalAlign=middle;whiteSpace=wrap;rounded=0;" vertex="1" parent="1">
          <mxGeometry x="670" y="750" width="40" height="20" as="geometry"/>
        </mxCell>
      </root>
    </mxGraphModel>
  </diagram>
</mxfile>
